<svg width="40" height="38" viewBox="0 0 40 38" fill="none" xmlns="http://www.w3.org/2000/svg">
<path d="M22.2222 10.5556V2.11111C22.2222 1.51296 22.4352 1.01157 22.8611 0.606944C23.287 0.202315 23.8148 0 24.4444 0H37.7778C38.4074 0 38.9352 0.202315 39.3611 0.606944C39.787 1.01157 40 1.51296 40 2.11111V10.5556C40 11.1537 39.787 11.6551 39.3611 12.0597C38.9352 12.4644 38.4074 12.6667 37.7778 12.6667H24.4444C23.8148 12.6667 23.287 12.4644 22.8611 12.0597C22.4352 11.6551 22.2222 11.1537 22.2222 10.5556ZM0 19V2.11111C0 1.51296 0.212963 1.01157 0.638889 0.606944C1.06481 0.202315 1.59259 0 2.22222 0H15.5556C16.1852 0 16.713 0.202315 17.1389 0.606944C17.5648 1.01157 17.7778 1.51296 17.7778 2.11111V19C17.7778 19.5981 17.5648 20.0995 17.1389 20.5042C16.713 20.9088 16.1852 21.1111 15.5556 21.1111H2.22222C1.59259 21.1111 1.06481 20.9088 0.638889 20.5042C0.212963 20.0995 0 19.5981 0 19ZM22.2222 35.8889V19C22.2222 18.4019 22.4352 17.9005 22.8611 17.4958C23.287 17.0912 23.8148 16.8889 24.4444 16.8889H37.7778C38.4074 16.8889 38.9352 17.0912 39.3611 17.4958C39.787 17.9005 40 18.4019 40 19V35.8889C40 36.487 39.787 36.9884 39.3611 37.3931C38.9352 37.7977 38.4074 38 37.7778 38H24.4444C23.8148 38 23.287 37.7977 22.8611 37.3931C22.4352 36.9884 22.2222 36.487 22.2222 35.8889ZM0 35.8889V27.4444C0 26.8463 0.212963 26.3449 0.638889 25.9403C1.06481 25.5356 1.59259 25.3333 2.22222 25.3333H15.5556C16.1852 25.3333 16.713 25.5356 17.1389 25.9403C17.5648 26.3449 17.7778 26.8463 17.7778 27.4444V35.8889C17.7778 36.487 17.5648 36.9884 17.1389 37.3931C16.713 37.7977 16.1852 38 15.5556 38H2.22222C1.59259 38 1.06481 37.7977 0.638889 37.3931C0.212963 36.9884 0 36.487 0 35.8889ZM4.44444 16.8889H13.3333V4.22222H4.44444V16.8889ZM26.6667 33.7778H35.5556V21.1111H26.6667V33.7778ZM26.6667 8.44444H35.5556V4.22222H26.6667V8.44444ZM4.44444 33.7778H13.3333V29.5556H4.44444V33.7778Z" fill="white"/>
</svg>
