<svg width="40" height="39" viewBox="0 0 40 39" fill="none" xmlns="http://www.w3.org/2000/svg">
<path d="M2.5 6.8922C4.71245 5.99089 7.88475 5.01989 10.9692 4.71656C14.295 4.38949 17.116 4.87033 18.75 6.54884V30.3044C16.4128 29.0124 13.4516 28.8351 10.7183 29.1039C7.76732 29.3941 4.79427 30.2278 2.5 31.0807V6.8922ZM21.25 6.54885C22.884 4.87033 25.705 4.38949 29.0308 4.71656C32.1153 5.01989 35.2875 5.99089 37.5 6.8922V31.0807C35.2057 30.2278 32.2327 29.3941 29.2817 29.1039C26.5484 28.8351 23.5872 29.0124 21.25 30.3044V6.54885ZM20 4.34621C17.5377 2.28263 13.9671 1.97187 10.7183 2.29136C6.93304 2.66362 3.11147 3.93009 0.732746 4.9843C0.286503 5.18206 0 5.61588 0 6.09381V32.9063C0 33.3207 0.21594 33.7067 0.573268 33.931C0.930595 34.1553 1.38035 34.1873 1.76725 34.0158C3.97187 33.0388 7.52529 31.8678 10.9692 31.5291C14.4891 31.1829 17.4437 31.7417 19.0239 33.6677C19.2611 33.9568 19.6203 34.1251 20 34.1251C20.3797 34.1251 20.7389 33.9568 20.9761 33.6677C22.5563 31.7417 25.5109 31.1829 29.0308 31.5291C32.4747 31.8678 36.0281 33.0388 38.2327 34.0158C38.6197 34.1873 39.0694 34.1553 39.4267 33.931C39.7841 33.7067 40 33.3207 40 32.9063V6.09381C40 5.61588 39.7135 5.18206 39.2673 4.9843C36.8885 3.93009 33.067 2.66362 29.2817 2.29136C26.0329 1.97187 22.4623 2.28263 20 4.34621Z" fill="white"/>
</svg>
