<svg width="40" height="44" viewBox="0 0 40 44" fill="none" xmlns="http://www.w3.org/2000/svg">
<g filter="url(#filter0_d_36_3148)">
<path d="M19.9998 21.5001C18.1665 21.5001 16.5971 20.7983 15.2915 19.3949C13.9859 17.9914 13.3332 16.3042 13.3332 14.3334C13.3332 12.3626 13.9859 10.6754 15.2915 9.27196C16.5971 7.86848 18.1665 7.16675 19.9998 7.16675C21.8332 7.16675 23.4026 7.86848 24.7082 9.27196C26.0137 10.6754 26.6665 12.3626 26.6665 14.3334C26.6665 16.3042 26.0137 17.9914 24.7082 19.3949C23.4026 20.7983 21.8332 21.5001 19.9998 21.5001ZM6.6665 35.8334V30.8167C6.6665 29.8015 6.90956 28.8683 7.39567 28.0173C7.88178 27.1662 8.52761 26.5167 9.33317 26.0688C11.0554 25.1431 12.8054 24.4489 14.5832 23.986C16.3609 23.5232 18.1665 23.2917 19.9998 23.2917C21.8332 23.2917 23.6387 23.5232 25.4165 23.986C27.1943 24.4489 28.9443 25.1431 30.6665 26.0688C31.4721 26.5167 32.1179 27.1662 32.604 28.0173C33.0901 28.8683 33.3332 29.8015 33.3332 30.8167V35.8334H6.6665ZM9.99984 32.2501H29.9998V30.8167C29.9998 30.4883 29.9234 30.1897 29.7707 29.9209C29.6179 29.6522 29.4165 29.4431 29.1665 29.2938C27.6665 28.4876 26.1526 27.8829 24.6248 27.4798C23.0971 27.0766 21.5554 26.8751 19.9998 26.8751C18.4443 26.8751 16.9026 27.0766 15.3748 27.4798C13.8471 27.8829 12.3332 28.4876 10.8332 29.2938C10.5832 29.4431 10.3818 29.6522 10.229 29.9209C10.0762 30.1897 9.99984 30.4883 9.99984 30.8167V32.2501ZM19.9998 17.9167C20.9165 17.9167 21.7012 17.5659 22.354 16.8641C23.0068 16.1624 23.3332 15.3188 23.3332 14.3334C23.3332 13.348 23.0068 12.5044 22.354 11.8027C21.7012 11.1009 20.9165 10.7501 19.9998 10.7501C19.0832 10.7501 18.2984 11.1009 17.6457 11.8027C16.9929 12.5044 16.6665 13.348 16.6665 14.3334C16.6665 15.3188 16.9929 16.1624 17.6457 16.8641C18.2984 17.5659 19.0832 17.9167 19.9998 17.9167Z" fill="white"/>
</g>
<defs>
<filter id="filter0_d_36_3148" x="-4" y="0" width="48" height="51" filterUnits="userSpaceOnUse" color-interpolation-filters="sRGB">
<feFlood flood-opacity="0" result="BackgroundImageFix"/>
<feColorMatrix in="SourceAlpha" type="matrix" values="0 0 0 0 0 0 0 0 0 0 0 0 0 0 0 0 0 0 127 0" result="hardAlpha"/>
<feOffset dy="4"/>
<feGaussianBlur stdDeviation="2"/>
<feComposite in2="hardAlpha" operator="out"/>
<feColorMatrix type="matrix" values="0 0 0 0 0 0 0 0 0 0 0 0 0 0 0 0 0 0 0.25 0"/>
<feBlend mode="normal" in2="BackgroundImageFix" result="effect1_dropShadow_36_3148"/>
<feBlend mode="normal" in="SourceGraphic" in2="effect1_dropShadow_36_3148" result="shape"/>
</filter>
</defs>
</svg>
