<svg width="40" height="36" viewBox="0 0 40 36" fill="none" xmlns="http://www.w3.org/2000/svg">
<mask id="mask0_36_3147" style="mask-type:alpha" maskUnits="userSpaceOnUse" x="0" y="0" width="40" height="36">
<rect width="40" height="36" fill="#D9D9D9"/>
</mask>
<g mask="url(#mask0_36_3147)">
<path d="M1.6665 25.8C1.6665 24.95 1.90956 24.1687 2.39567 23.4562C2.88178 22.7437 3.52762 22.2 4.33317 21.825C6.05539 21.05 7.80539 20.4688 9.58317 20.0812C11.3609 19.6937 13.1665 19.5 14.9998 19.5C16.8332 19.5 18.6387 19.6937 20.4165 20.0812C22.1943 20.4688 23.9443 21.05 25.6665 21.825C26.4721 22.2 27.1179 22.7437 27.604 23.4562C28.0901 24.1687 28.3332 24.95 28.3332 25.8V27C28.3332 27.825 28.0068 28.5312 27.354 29.1188C26.7012 29.7063 25.9165 30 24.9998 30H4.99984C4.08317 30 3.29845 29.7063 2.64567 29.1188C1.99289 28.5312 1.6665 27.825 1.6665 27V25.8ZM34.9998 30H30.7498C31.0554 29.55 31.2846 29.0688 31.4373 28.5563C31.5901 28.0438 31.6665 27.525 31.6665 27V25.5C31.6665 24.4 31.3262 23.3438 30.6457 22.3312C29.9651 21.3187 28.9998 20.45 27.7498 19.725C29.1665 19.875 30.4998 20.1313 31.7498 20.4938C32.9998 20.8563 34.1665 21.3 35.2498 21.825C36.2498 22.325 37.0137 22.8813 37.5415 23.4938C38.0693 24.1063 38.3332 24.775 38.3332 25.5V27C38.3332 27.825 38.0068 28.5312 37.354 29.1188C36.7012 29.7063 35.9165 30 34.9998 30ZM14.9998 18C13.1665 18 11.5971 17.4125 10.2915 16.2375C8.98595 15.0625 8.33317 13.65 8.33317 12C8.33317 10.35 8.98595 8.9375 10.2915 7.7625C11.5971 6.5875 13.1665 6 14.9998 6C16.8332 6 18.4026 6.5875 19.7082 7.7625C21.0137 8.9375 21.6665 10.35 21.6665 12C21.6665 13.65 21.0137 15.0625 19.7082 16.2375C18.4026 17.4125 16.8332 18 14.9998 18ZM31.6665 12C31.6665 13.65 31.0137 15.0625 29.7082 16.2375C28.4026 17.4125 26.8332 18 24.9998 18C24.6943 18 24.3054 17.9688 23.8332 17.9062C23.361 17.8438 22.9721 17.775 22.6665 17.7C23.4165 16.9 23.9929 16.0125 24.3957 15.0375C24.7984 14.0625 24.9998 13.05 24.9998 12C24.9998 10.95 24.7984 9.9375 24.3957 8.9625C23.9929 7.9875 23.4165 7.1 22.6665 6.3C23.0554 6.175 23.4443 6.09375 23.8332 6.05625C24.2221 6.01875 24.6109 6 24.9998 6C26.8332 6 28.4026 6.5875 29.7082 7.7625C31.0137 8.9375 31.6665 10.35 31.6665 12ZM4.99984 27H24.9998V25.8C24.9998 25.525 24.9235 25.275 24.7707 25.05C24.6179 24.825 24.4165 24.65 24.1665 24.525C22.6665 23.85 21.1526 23.3438 19.6248 23.0063C18.0971 22.6688 16.5554 22.5 14.9998 22.5C13.4443 22.5 11.9026 22.6688 10.3748 23.0063C8.84706 23.3438 7.33317 23.85 5.83317 24.525C5.58317 24.65 5.38178 24.825 5.229 25.05C5.07623 25.275 4.99984 25.525 4.99984 25.8V27ZM14.9998 15C15.9165 15 16.7012 14.7063 17.354 14.1187C18.0068 13.5312 18.3332 12.825 18.3332 12C18.3332 11.175 18.0068 10.4688 17.354 9.88125C16.7012 9.29375 15.9165 9 14.9998 9C14.0832 9 13.2984 9.29375 12.6457 9.88125C11.9929 10.4688 11.6665 11.175 11.6665 12C11.6665 12.825 11.9929 13.5312 12.6457 14.1187C13.2984 14.7063 14.0832 15 14.9998 15Z" fill="white"/>
</g>
</svg>
