<svg width="40" height="31" viewBox="0 0 40 31" fill="none" xmlns="http://www.w3.org/2000/svg">
<path fill-rule="evenodd" clip-rule="evenodd" d="M21.5909 6.78125C21.5909 6.24622 21.0313 5.8125 20.3409 5.8125H3.75C1.67893 5.8125 0 7.11367 0 8.71875V28.0938C0 29.6988 1.67893 31 3.75 31H28.75C30.8211 31 32.5 29.6988 32.5 28.0938V15.2358C32.5 14.7008 31.9404 14.267 31.25 14.267C30.5596 14.267 30 14.7008 30 15.2358V28.0938C30 28.6288 29.4404 29.0625 28.75 29.0625H3.75C3.05964 29.0625 2.5 28.6288 2.5 28.0938V8.71875C2.5 8.18372 3.05964 7.75 3.75 7.75H20.3409C21.0313 7.75 21.5909 7.31628 21.5909 6.78125Z" fill="white"/>
<path fill-rule="evenodd" clip-rule="evenodd" d="M40 0.96875C40 0.433724 39.4404 0 38.75 0H26.25C25.5596 0 25 0.433724 25 0.96875C25 1.50378 25.5596 1.9375 26.25 1.9375H35.7322L15.3661 17.7212C14.878 18.0996 14.878 18.7129 15.3661 19.0913C15.8543 19.4696 16.6457 19.4696 17.1339 19.0913L37.5 3.30752V10.6562C37.5 11.1913 38.0596 11.625 38.75 11.625C39.4404 11.625 40 11.1913 40 10.6562V0.96875Z" fill="white"/>
</svg>
