<svg width="40" height="30" viewBox="0 0 40 30" fill="none" xmlns="http://www.w3.org/2000/svg">
<path fill-rule="evenodd" clip-rule="evenodd" d="M15.9091 25.3125C15.9091 25.8303 16.4687 26.25 17.1591 26.25H33.75C35.8211 26.25 37.5 24.9908 37.5 23.4375V4.6875C37.5 3.1342 35.8211 1.875 33.75 1.875H8.75C6.67893 1.875 5 3.1342 5 4.6875V17.1307C5 17.6484 5.55964 18.0682 6.25 18.0682C6.94036 18.0682 7.5 17.6484 7.5 17.1307V4.6875C7.5 4.16973 8.05964 3.75 8.75 3.75H33.75C34.4404 3.75 35 4.16973 35 4.6875V23.4375C35 23.9553 34.4404 24.375 33.75 24.375H17.1591C16.4687 24.375 15.9091 24.7947 15.9091 25.3125Z" fill="white"/>
<path fill-rule="evenodd" clip-rule="evenodd" d="M27.5 10.3125C27.5 9.79473 26.9404 9.375 26.25 9.375H13.75C13.0596 9.375 12.5 9.79473 12.5 10.3125C12.5 10.8303 13.0596 11.25 13.75 11.25H23.2322L2.86612 26.5246C2.37796 26.8907 2.37796 27.4843 2.86612 27.8504C3.35427 28.2165 4.14573 28.2165 4.63388 27.8504L25 12.5758V19.6875C25 20.2053 25.5596 20.625 26.25 20.625C26.9404 20.625 27.5 20.2053 27.5 19.6875V10.3125Z" fill="white"/>
</svg>
