<svg width="39" height="30" viewBox="0 0 39 30" fill="none" xmlns="http://www.w3.org/2000/svg">
<path fill-rule="evenodd" clip-rule="evenodd" d="M14.982 11.5246C15.4579 11.1585 16.2296 11.1585 16.7055 11.5246L19.5 13.6742L22.2945 11.5246C22.7704 11.1585 23.5421 11.1585 24.018 11.5246C24.494 11.8907 24.494 12.4843 24.018 12.8504L21.2236 15L24.018 17.1496C24.494 17.5157 24.494 18.1093 24.018 18.4754C23.5421 18.8415 22.7704 18.8415 22.2945 18.4754L19.5 16.3258L16.7055 18.4754C16.2296 18.8415 15.4579 18.8415 14.982 18.4754C14.506 18.1093 14.506 17.5157 14.982 17.1496L17.7764 15L14.982 12.8504C14.506 12.4843 14.506 11.8907 14.982 11.5246Z" fill="white"/>
<path d="M7.3125 0H31.6875C34.3799 0 36.5625 1.67893 36.5625 3.75V26.25C36.5625 28.3211 34.3799 30 31.6875 30H7.3125C4.62011 30 2.4375 28.3211 2.4375 26.25V24.375H4.875V26.25C4.875 27.2855 5.96631 28.125 7.3125 28.125H31.6875C33.0337 28.125 34.125 27.2855 34.125 26.25V3.75C34.125 2.71447 33.0337 1.875 31.6875 1.875H7.3125C5.96631 1.875 4.875 2.71447 4.875 3.75V5.625H2.4375V3.75C2.4375 1.67893 4.62011 0 7.3125 0Z" fill="white"/>
<path d="M2.4375 9.375V8.4375C2.4375 7.91973 2.98315 7.5 3.65625 7.5C4.32935 7.5 4.875 7.91973 4.875 8.4375V9.375H6.09375C6.76685 9.375 7.3125 9.79473 7.3125 10.3125C7.3125 10.8303 6.76685 11.25 6.09375 11.25H1.21875C0.545653 11.25 0 10.8303 0 10.3125C0 9.79473 0.545653 9.375 1.21875 9.375H2.4375Z" fill="white"/>
<path d="M2.4375 15V14.0625C2.4375 13.5447 2.98315 13.125 3.65625 13.125C4.32935 13.125 4.875 13.5447 4.875 14.0625V15H6.09375C6.76685 15 7.3125 15.4197 7.3125 15.9375C7.3125 16.4553 6.76685 16.875 6.09375 16.875H1.21875C0.545653 16.875 0 16.4553 0 15.9375C0 15.4197 0.545653 15 1.21875 15H2.4375Z" fill="white"/>
<path d="M2.4375 20.625V19.6875C2.4375 19.1697 2.98315 18.75 3.65625 18.75C4.32935 18.75 4.875 19.1697 4.875 19.6875V20.625H6.09375C6.76685 20.625 7.3125 21.0447 7.3125 21.5625C7.3125 22.0803 6.76685 22.5 6.09375 22.5H1.21875C0.545653 22.5 0 22.0803 0 21.5625C0 21.0447 0.545653 20.625 1.21875 20.625H2.4375Z" fill="white"/>
</svg>
