<svg width="40" height="33" viewBox="0 0 40 33" fill="none" xmlns="http://www.w3.org/2000/svg">
<path fill-rule="evenodd" clip-rule="evenodd" d="M25 25.7812C25 26.3508 24.4404 26.8125 23.75 26.8125L3.75 26.8125C3.05964 26.8125 2.5 26.3508 2.5 25.7812L2.5 7.21875C2.5 6.64921 3.05965 6.1875 3.75 6.1875L23.75 6.1875C24.4404 6.1875 25 6.64921 25 7.21875L25 11.3437C25 11.9133 25.5596 12.375 26.25 12.375C26.9404 12.375 27.5 11.9133 27.5 11.3438L27.5 7.21875C27.5 5.51012 25.8211 4.125 23.75 4.125L3.75 4.125C1.67894 4.125 1.23795e-06 5.51012 1.14742e-06 7.21875L1.63918e-07 25.7812C7.33884e-08 27.4899 1.67893 28.875 3.75 28.875L23.75 28.875C25.8211 28.875 27.5 27.4899 27.5 25.7812L27.5 21.6562C27.5 21.0867 26.9404 20.625 26.25 20.625C25.5596 20.625 25 21.0867 25 21.6562L25 25.7812Z" fill="white"/>
<path fill-rule="evenodd" clip-rule="evenodd" d="M39.6339 17.2292C40.122 16.8265 40.122 16.1735 39.6339 15.7708L32.1339 9.5833C31.6457 9.18057 30.8543 9.18057 30.3661 9.5833C29.878 9.98602 29.878 10.639 30.3661 11.0417L35.7322 15.4687L13.75 15.4687C13.0596 15.4687 12.5 15.9305 12.5 16.5C12.5 17.0695 13.0596 17.5312 13.75 17.5312L35.7322 17.5312L30.3661 21.9583C29.878 22.361 29.878 23.014 30.3661 23.4167C30.8543 23.8194 31.6457 23.8194 32.1339 23.4167L39.6339 17.2292Z" fill="white"/>
</svg>
