<svg width="25" height="23" viewBox="0 0 25 23" fill="none" xmlns="http://www.w3.org/2000/svg">
<path fill-rule="evenodd" clip-rule="evenodd" d="M10.1562 17.25C14.9024 17.25 18.75 13.7103 18.75 9.34375C18.75 4.97725 14.9024 1.4375 10.1562 1.4375C5.41005 1.4375 1.5625 4.97725 1.5625 9.34375C1.5625 13.7103 5.41005 17.25 10.1562 17.25ZM20.3125 9.34375C20.3125 14.5042 15.7654 18.6875 10.1562 18.6875C4.54711 18.6875 0 14.5042 0 9.34375C0 4.18334 4.54711 0 10.1562 0C15.7654 0 20.3125 4.18334 20.3125 9.34375Z" fill="black" fill-opacity="0.5"/>
<path d="M16.1623 16.8794C16.2084 16.9368 16.2597 16.9919 16.3163 17.0439L22.3327 22.579C22.9428 23.1403 23.9322 23.1403 24.5424 22.579C25.1526 22.0176 25.1526 21.1074 24.5424 20.546L18.526 15.011C18.4694 14.959 18.4096 14.9117 18.3471 14.8693C17.7342 15.6371 16.9968 16.3155 16.1623 16.8794Z" fill="black" fill-opacity="0.5"/>
<path fill-rule="evenodd" clip-rule="evenodd" d="M10.1562 4.3125C10.5877 4.3125 10.9375 4.6343 10.9375 5.03125V8.625H14.8438C15.2752 8.625 15.625 8.9468 15.625 9.34375C15.625 9.7407 15.2752 10.0625 14.8438 10.0625H10.9375V13.6562C10.9375 14.0532 10.5877 14.375 10.1562 14.375C9.72478 14.375 9.375 14.0532 9.375 13.6562V10.0625H5.46875C5.03728 10.0625 4.6875 9.7407 4.6875 9.34375C4.6875 8.9468 5.03728 8.625 5.46875 8.625H9.375V5.03125C9.375 4.6343 9.72478 4.3125 10.1562 4.3125Z" fill="black" fill-opacity="0.5"/>
</svg>
