<svg width="37" height="37" viewBox="0 0 37 37" fill="none" xmlns="http://www.w3.org/2000/svg">
<path d="M25.4375 13.875C25.4375 17.7065 22.3315 20.8125 18.5 20.8125C14.6685 20.8125 11.5625 17.7065 11.5625 13.875C11.5625 10.0435 14.6685 6.9375 18.5 6.9375C22.3315 6.9375 25.4375 10.0435 25.4375 13.875Z" fill="black"/>
<path fill-rule="evenodd" clip-rule="evenodd" d="M0 18.5C0 8.28273 8.28273 0 18.5 0C28.7173 0 37 8.28273 37 18.5C37 28.7173 28.7173 37 18.5 37C8.28273 37 0 28.7173 0 18.5ZM18.5 2.3125C9.55989 2.3125 2.3125 9.55989 2.3125 18.5C2.3125 22.3236 3.63816 25.8375 5.85493 28.6072C7.49927 25.9584 11.1107 23.125 18.5 23.125C25.8893 23.125 29.5007 25.9584 31.1451 28.6072C33.3619 25.8375 34.6875 22.3236 34.6875 18.5C34.6875 9.55989 27.4401 2.3125 18.5 2.3125Z" fill="black"/>
</svg>
