<svg width="19" height="17" viewBox="0 0 19 17" fill="none" xmlns="http://www.w3.org/2000/svg">
<path fill-rule="evenodd" clip-rule="evenodd" d="M9.5 0C10.2495 0 10.8571 0.543654 10.8571 1.21429V7.28571H17.6429C18.3924 7.28571 19 7.82937 19 8.5C19 9.17063 18.3924 9.71429 17.6429 9.71429H10.8571V15.7857C10.8571 16.4563 10.2495 17 9.5 17C8.75047 17 8.14286 16.4563 8.14286 15.7857V9.71429H1.35714C0.607614 9.71429 0 9.17063 0 8.5C0 7.82937 0.607614 7.28571 1.35714 7.28571H8.14286V1.21429C8.14286 0.543654 8.75047 0 9.5 0Z" fill="white"/>
</svg>
